<svg t="1649776438457" class="icon" viewBox="0 0 1024 1024" version="1.1" xmlns="http://www.w3.org/2000/svg" p-id="24640" width="200" height="200"><path d="M541.292 143.298c211.74 81.916 407.616 0 407.616 0l-96.346 304.586 96.346 303.026s-195.876 81.884-407.616 0c-211.708-81.95-402.274 0-402.274 0V143.298c0.002 0 190.568-81.946 402.274 0z" fill="#434A54" p-id="24641"></path><path d="M948.908 143.298s-17.428 7.276-47.502 15.302l-91.472 289.284 96.346 303.026s-76.92 32.134-186.412 36.008c131.634 4.714 229.042-36.008 229.042-36.008l-96.346-303.026 96.344-304.586z" fill="#FFFFFF" opacity=".1" p-id="24642"></path><path d="M117.72 0.328c-23.546 0-42.628 19.082-42.628 42.598v980.746h85.258V42.926C160.35 19.41 141.268 0.328 117.72 0.328z" fill="#A85D5D" p-id="24643"></path><path d="M698.85 576.552v-0.032L315.22 469.964a21.312 21.312 0 0 0-5.684-0.782c-11.774 0-21.33 9.526-21.33 21.33 0 9.776 6.622 17.988 15.616 20.486v0.032l383.628 106.588v-0.032c1.812 0.5 3.718 0.782 5.686 0.782 11.774 0 21.33-9.556 21.33-21.298a21.28 21.28 0 0 0-15.616-20.518z" fill="#AAB2BC" p-id="24644"></path><path d="M714.464 490.514c0-11.804-9.556-21.33-21.33-21.33-1.966 0-3.874 0.282-5.686 0.782L303.82 576.522v0.032a21.272 21.272 0 0 0-15.616 20.518c0 11.742 9.556 21.298 21.33 21.298 1.968 0 3.874-0.282 5.684-0.782v0.032l383.63-106.588v-0.032c8.996-2.498 15.616-10.71 15.616-20.486z" fill="#CCD1D9" p-id="24645"></path><path d="M629.208 383.958c0-70.642-57.246-127.886-127.858-127.886-70.64 0-127.886 57.244-127.886 127.886 0 37.85 16.458 71.89 42.628 95.284v53.872h170.486V479.24c26.17-23.392 42.63-57.432 42.63-95.282z" fill="#F5F7FA" p-id="24646"></path><path d="M490.67 383.958c0 11.742-9.526 21.298-21.298 21.298s-21.33-9.556-21.33-21.298c0-11.804 9.556-21.33 21.33-21.33s21.298 9.524 21.298 21.33zM554.628 383.958c0 11.742-9.554 21.298-21.33 21.298-11.774 0-21.298-9.556-21.298-21.298 0-11.804 9.526-21.33 21.298-21.33a21.314 21.314 0 0 1 21.33 21.33z" fill="#434A54" p-id="24647"></path><path d="M480.02 511.812c-11.774 0-21.298 9.556-21.298 21.298h42.628c0-11.74-9.556-21.298-21.33-21.298zM522.648 511.812c-11.774 0-21.298 9.556-21.298 21.298h42.6c0-11.74-9.526-21.298-21.302-21.298zM565.278 511.812c-11.774 0-21.328 9.556-21.328 21.298h42.628c0-11.74-9.526-21.298-21.3-21.298zM437.39 511.812c-11.774 0-21.298 9.556-21.298 21.298h42.628c0-11.74-9.556-21.298-21.33-21.298z" fill="#E6E9ED" p-id="24648"></path></svg>